<svg width="24" height="24" viewBox="0 0 24 24" xmlns="http://www.w3.org/2000/svg" aria-hidden="true" focusable="false">
  <path fill="black" d="M16.365 12.112c.032 3.284 2.852 4.383 2.885 4.398-.024.078-.451 1.546-1.484 3.062-.893 1.291-1.82 2.577-3.275 2.604-1.44.027-1.902-.84-3.548-.84-1.646 0-2.154.813-3.51.865-1.41.052-2.485-1.392-3.41-2.68-1.854-2.694-3.273-7.611-1.37-10.938.948-1.675 2.641-2.733 4.478-2.758 1.401-.027 2.722.92 3.547.92.825 0 2.432-1.138 4.098-.971.698.029 2.659.283 3.925 2.137-.102.063-2.337 1.365-2.311 4.201m-2.707-7.68C14.408 3.521 14.948 2.252 14.806 1c-1.109.045-2.443.738-3.235 1.648-.712.806-1.337 2.087-1.172 3.317 1.237.096 2.509-.63 3.259-1.533"/>
</svg>
